<svg xmlns="http://www.w3.org/2000/svg" viewBox="0 0 215.2 23.7" enable-background="new 0 0 215.2 23.7"><path fill="#202020" d="M11.8 8.8c.8-.4 1.4-.9 1.8-1.5.4-.6.6-1.4.6-2.3 0-.8-.1-1.6-.4-2.1-.3-.6-.7-1-1.2-1.4-.5-.3-1.1-.6-1.8-.7C10.1.6 9.3.6 8.4.6H0v18.1h8.8c.8 0 1.6-.1 2.4-.3.8-.2 1.5-.5 2.1-.9.6-.4 1.1-1 1.4-1.6.4-.7.5-1.5.5-2.4 0-1.1-.3-2.1-.8-2.9-.6-1-1.4-1.5-2.6-1.8zM4 3.6h3.7c.4 0 .7 0 1 .1.4 0 .7.1.9.3.3.2.5.4.6.6.2.3.2.6.2 1 0 .8-.2 1.3-.7 1.6-.4.5-1 .6-1.7.6H4V3.6zm6.9 10.7c-.2.3-.4.5-.6.7-.3.2-.6.3-.9.4-.4.1-.7.1-1.1.1H4v-5h4.3c.9 0 1.6.2 2.1.6.5.4.8 1.1.8 2 0 .5-.1.9-.3 1.2zm11.7-9c-.4.1-.8.3-1.2.6-.4.2-.7.5-1 .9-.3.3-.5.7-.7 1.1h-.1V5.5h-3.4v13.1h3.6v-5.9c0-.6.1-1.1.2-1.6s.3-1 .6-1.3c.4-.5.7-.8 1.2-1 .5-.2 1-.3 1.7-.3h.7c.2 0 .4.1.6.1V5.3c-.3-.1-.5-.1-.8-.1-.5-.1-.9 0-1.4.1zM36.5 7c-.6-.6-1.3-1.1-2.1-1.4-.8-.3-1.8-.5-2.8-.5-1 0-2 .2-2.8.5-.9.4-1.6.8-2.2 1.4-.6.6-1 1.3-1.4 2.2-.3.9-.5 1.8-.5 2.9 0 1 .2 2 .5 2.8.3.8.8 1.6 1.4 2.2.6.6 1.3 1.1 2.1 1.4.8.3 1.8.5 2.8.5 1 0 2-.2 2.8-.5.8-.3 1.6-.8 2.1-1.4.6-.6 1-1.3 1.4-2.2.3-.8.5-1.8.5-2.8 0-1-.2-2-.5-2.9-.3-.8-.7-1.6-1.3-2.2zm-1.9 6.6c-.1.5-.3.9-.5 1.3s-.6.7-1 1c-.4.2-.9.4-1.5.4s-1.1-.1-1.5-.4c-.4-.2-.7-.6-1-1-.2-.4-.4-.8-.5-1.3-.1-.5-.2-1-.2-1.5s.1-1 .2-1.5.3-1 .5-1.3c.2-.4.6-.7 1-1 .4-.2.9-.4 1.5-.4s1.1.1 1.5.4c.4.2.7.6 1 1 .2.4.4.8.5 1.3.1.5.2 1 .2 1.5s-.1 1-.2 1.5zm16.7 2.1V8.9c0-.8-.2-1.4-.5-1.9-.4-.5-.8-.9-1.4-1.1-.6-.3-1.2-.5-1.9-.5-.7-.1-1.3-.1-2-.1s-1.4.1-2.2.2c-.7.1-1.4.4-1.9.7-.6.3-1 .8-1.4 1.3-.4.6-.6 1.3-.6 2.1H43c.1-.7.3-1.2.7-1.5.4-.3 1-.5 1.7-.5.3 0 .6 0 .9.1.3 0 .5.1.7.3.2.1.4.3.5.5.1.2.2.5.2.9s-.1.7-.3.8c-.2.2-.6.3-1 .4-.4.1-.9.2-1.4.2-.5.1-1 .2-1.6.2-.5.1-1.1.2-1.6.3-.5.1-1 .4-1.4.6-.4.3-.8.7-1 1.2-.3.6-.4 1.2-.4 1.9s.1 1.3.3 1.7c.2.5.5.9 1 1.2.4.3.9.6 1.4.7.5.2 1.1.2 1.7.2.8 0 1.6-.1 2.4-.4.8-.2 1.5-.7 2-1.2 0 .2 0 .4.1.6 0 .2.1.4.2.6h3.6c-.2-.3-.3-.7-.4-1.2v-1.5zm-3.6-2.2c0 .2 0 .5-.1.8 0 .3-.2.7-.3 1-.2.3-.5.6-.9.8-.4.2-.9.4-1.6.4-.3 0-.6 0-.8-.1-.3-.1-.5-.1-.7-.3-.2-.1-.4-.3-.5-.5-.1-.2-.2-.5-.2-.8 0-.3.1-.6.2-.8.1-.2.3-.4.5-.5.2-.1.4-.3.7-.3.3-.1.5-.2.8-.2.3-.1.6-.1.9-.1.3 0 .6-.1.8-.1.3-.1.5-.1.7-.2l.6-.3v1.2zm14.7-6.4c-.5-.6-1-1.1-1.7-1.5-.7-.3-1.4-.5-2.2-.5-1 0-1.8.2-2.5.6-.7.4-1.3.9-1.8 1.5s-.8 1.3-1.1 2.2c-.2.8-.4 1.7-.4 2.5 0 .9.1 1.8.4 2.6.2.8.6 1.6 1.1 2.2.5.7 1.1 1.2 1.8 1.5.7.4 1.6.6 2.6.6.9 0 1.6-.2 2.3-.5.7-.3 1.2-.8 1.7-1.5h.1v1.7H66V.5h-3.6v6.6zm0 6.5c-.1.5-.3 1-.5 1.4-.2.4-.6.7-.9 1-.4.2-.9.4-1.5.4s-1-.1-1.4-.4c-.4-.2-.7-.6-1-1-.3-.4-.5-.8-.6-1.4-.1-.5-.2-1-.2-1.5s.1-1.1.2-1.6.3-.9.5-1.3.6-.7 1-.9c.4-.2.9-.4 1.5-.4s1.1.1 1.5.4c.4.2.7.5 1 .9.2.4.4.8.5 1.3.1.5.2 1 .2 1.6-.2.4-.2 1-.3 1.5zm21.1-8.1l-2.4 8.9H81l-2.2-8.9h-3.5l-2.2 8.9H73l-2.4-8.9h-3.8L71 18.6h3.7L77 9.8h.1l2.3 8.8h3.7l4.1-13.1h-3.7zm15.9 10.2V8.9c0-.8-.2-1.4-.5-1.9-.4-.5-.8-.9-1.4-1.1-.6-.3-1.2-.5-1.9-.5-.7-.1-1.3-.1-2-.1s-1.4.1-2.2.2c-.7.1-1.4.4-1.9.7-.6.3-1 .8-1.4 1.3-.4.6-.6 1.3-.6 2.1h3.6c.1-.7.3-1.2.7-1.5.4-.3 1-.5 1.7-.5.3 0 .6 0 .9.1.3 0 .5.1.7.3.2.1.4.3.5.5.1.2.2.5.2.9s-.1.7-.3.8c-.2.2-.6.3-1 .4-.4.1-.9.2-1.4.2-.5.1-1.1.2-1.6.2-.5.1-1.1.2-1.6.3-.5.1-1 .4-1.4.6-.4.3-.8.7-1 1.2-.3.5-.4 1.1-.4 1.8s.1 1.3.3 1.7c.2.5.5.9 1 1.2.4.3.9.6 1.4.7.5.2 1.1.2 1.7.2.8 0 1.6-.1 2.4-.4.8-.2 1.5-.7 2-1.2 0 .2 0 .4.1.6 0 .2.1.4.2.6h3.6c-.2-.3-.3-.7-.4-1.2v-1.4zm-3.6-2.2c0 .2 0 .5-.1.8 0 .3-.2.7-.3 1-.2.3-.5.6-.9.8-.4.2-.9.4-1.6.4-.3 0-.6 0-.8-.1-.3-.1-.5-.1-.7-.3-.2-.1-.4-.3-.5-.5-.1-.2-.2-.5-.2-.8 0-.3.1-.6.2-.8.1-.2.3-.4.5-.5.2-.1.4-.3.7-.3.3-.1.5-.2.8-.2.3-.1.6-.1.9-.1.3 0 .6-.1.8-.1.3-.1.5-.1.7-.2l.6-.3v1.2zm11.1 1l-3-9h-3.8l4.6 12.3c.1.3.2.5.2.8 0 .4-.1.7-.3 1.1-.2.3-.6.5-1.1.6h-1.1c-.4 0-.7-.1-1-.1v3c.4 0 .7.1 1.1.1h1.1c1.2 0 2.2-.2 2.9-.7.7-.5 1.2-1.2 1.6-2.3l5.5-14.7h-3.7l-3 8.9zm17.5-1.6L120.1.5h-5.6v18.1h3.7V5.9h.1l4.4 12.7h3.1l4.4-12.8h.1v12.8h3.7V.5h-5.6l-4 12.4zm23.3 2.8V8.9c0-.8-.2-1.4-.5-1.9-.4-.5-.8-.9-1.4-1.1-.6-.3-1.2-.5-1.9-.5-.7-.1-1.3-.1-2-.1s-1.4.1-2.2.2c-.7.1-1.4.4-1.9.7-.6.3-1 .8-1.4 1.3-.4.6-.6 1.3-.6 2.1h3.6c.1-.7.3-1.2.7-1.5.4-.3 1-.5 1.7-.5.3 0 .6 0 .9.1.3 0 .5.1.7.3.2.1.4.3.5.5.1.2.2.5.2.9s-.1.7-.3.8c-.2.2-.6.3-1 .4-.4.1-.9.2-1.4.2-.5.1-1.1.1-1.6.2s-1.1.2-1.6.3c-.5.1-1 .4-1.4.6-.4.3-.8.7-1 1.2-.3.5-.4 1.1-.4 1.8s.1 1.3.3 1.7c.2.5.5.9 1 1.2.4.3.9.6 1.4.7.5.2 1.1.2 1.7.2.8 0 1.6-.1 2.4-.4.8-.2 1.5-.7 2-1.2 0 .2 0 .4.1.6 0 .2.1.4.2.6h3.6c-.2-.3-.3-.7-.4-1.2.1-.3 0-.8 0-1.4zm-3.6-2.2c0 .2 0 .5-.1.8 0 .3-.2.7-.3 1-.2.3-.5.6-.9.8-.4.2-.9.4-1.6.4-.3 0-.6 0-.8-.1-.3-.1-.5-.1-.7-.3-.2-.1-.4-.3-.5-.5-.1-.2-.2-.5-.2-.8 0-.3.1-.6.2-.8.1-.2.3-.4.5-.5.2-.1.4-.3.7-.3.3-.1.5-.2.8-.2.3-.1.6-.1.9-.1.3 0 .6-.1.8-.1.3-.1.5-.1.7-.2l.6-.3v1.2zm5.9 5.1h3.6V.5H150v18.1zm14.1-13.1l-2.9 9h-.1l-3-9h-3.8l4.6 12.3c.1.3.2.5.2.8 0 .4-.1.7-.3 1.1-.2.3-.6.5-1.1.6h-1.1c-.4 0-.7-.1-1-.1v3c.4 0 .7.1 1.1.1h1.1c1.2 0 2.2-.2 2.9-.7.7-.5 1.2-1.2 1.6-2.3l5.5-14.7h-3.7zm15.8 10.2V8.9c0-.8-.2-1.4-.5-1.9-.4-.5-.8-.9-1.4-1.1-.6-.3-1.2-.5-1.9-.5-.7-.1-1.3-.1-2-.1s-1.4.1-2.2.2c-.7.1-1.4.4-1.9.7-.6.3-1 .8-1.4 1.3-.3.5-.6 1.2-.6 2h3.6c.1-.7.3-1.2.7-1.5.4-.3 1-.5 1.7-.5.3 0 .6 0 .9.1.3 0 .5.1.7.3.2.1.4.3.5.5.1.2.2.5.2.9s-.1.7-.3.8c-.2.2-.6.3-1 .4-.4.1-.9.2-1.4.2-.5.1-1.1.1-1.6.2s-1.1.2-1.6.3c-.5.1-1 .4-1.4.6-.4.3-.8.7-1 1.2-.3.5-.4 1.1-.4 1.8s.1 1.3.3 1.7c.2.5.5.9 1 1.2.4.3.9.6 1.4.7.5.2 1.1.2 1.7.2.8 0 1.6-.1 2.4-.4.8-.2 1.5-.7 2-1.2 0 .2 0 .4.1.6 0 .2.1.4.2.6h3.6c-.2-.3-.3-.7-.4-1.2v-1.3zm-3.6-2.2c0 .2 0 .5-.1.8 0 .3-.2.7-.3 1-.2.3-.5.6-.9.8-.4.2-.9.4-1.6.4-.3 0-.6 0-.8-.1-.3-.1-.5-.1-.7-.3-.2-.1-.4-.3-.5-.5-.1-.2-.2-.5-.2-.8 0-.3.1-.6.2-.8.1-.2.3-.4.5-.5.2-.1.4-.3.7-.3.3-.1.5-.2.8-.2.3-.1.6-.1.9-.1.3 0 .6-.1.8-.1.3-.1.5-.1.7-.2l.6-.3v1.2zm16.6-6.9c-.4-.5-.8-.8-1.5-1.1-.6-.3-1.4-.4-2.4-.4-.8 0-1.5.2-2.2.5-.7.3-1.3.9-1.8 1.7V5.5h-3.4v13.1h3.6v-6.9c0-1.3.2-2.3.7-2.9.4-.5 1.1-.8 2.1-.8.9 0 1.5.3 1.8.8.3.5.5 1.3.5 2.4v7.4h3.6v-8.1c0-.8-.1-1.5-.2-2.2-.2-.6-.4-1.2-.8-1.7zm10.5-2.2c.4-.2.7-.4.9-.7.2-.3.3-.7.3-1.1 0-.4-.1-.7-.2-1-.1-.3-.3-.5-.6-.7-.2-.2-.5-.3-.9-.4-.3-.1-.7-.1-1.1-.1h-4.1V9h4.2c.4 0 .8 0 1.1-.1.4-.1.7-.2 1-.4.3-.2.5-.5.7-.8.2-.3.3-.7.3-1.1 0-.5-.1-1-.4-1.4-.3-.3-.7-.6-1.2-.8zM199.6 2h2.3c.2 0 .3.1.4.2l.3.3c.1.1.1.3.1.5 0 .4-.1.6-.3.8-.2.2-.5.2-.8.2h-1.9V2zm3.3 5.1c-.1.1-.2.3-.3.3-.1.1-.3.1-.4.2-.2 0-.3.1-.5.1h-2V5.3h2.1c.4 0 .7.1 1 .3.2.2.4.5.4.9-.2.2-.2.4-.3.6zm9.6-6.6l-1.9 5.9-2-5.9h-2.7v8.6h1.8v-6l2.1 6h1.5l2.1-6.1v6.1h1.8V.5h-2.7z"/></svg>