<svg xmlns="http://www.w3.org/2000/svg" viewBox="0 0 106.2 59.8" enable-background="new 0 0 106.2 59.8"><path fill="#231F20" d="M3.9 12.2L52.5 1.4l49.1 9.5s8.4 21.6-1.9 37.9c-21.7 4.7-46 9.2-46 9.2l-47-7.9c.1 0-9.9-14.7-2.8-37.9z"/><path stroke="#fff" stroke-width="3" stroke-linecap="round" stroke-linejoin="round" stroke-miterlimit="10" d="M8.2 14.7l44.4-9.2 44.8 8.1s7.2 18.5-1.6 32.5c-18.7 4-42.2 7.9-42.2 7.9l-42.9-6.8S2.1 34.6 8.2 14.7z" fill="none"/><path fill="#FEFEFE" d="M85.4 27.7v7c0 .6-.1.8-.7.7-.9-.1-2.1.4-2.6-.2-.5-.5-.1-1.7-.1-2.6 0-1.8 0-1.8-1.8-1.8s-1.8 0-1.8 1.8v2.3c0 .4-.1.5-.5.5h-2.7c-.4 0-.5-.1-.5-.5 0-4.6-.1-9.2 0-13.8.1-2.2 1-3.6 3.6-4.2 1.9-.4 3.8-.3 5.5.9 1 .7 1.6 1.8 1.6 3v6.9zM21.6 27v-8.3c0-.5.1-.7.6-.6h6.2c1.3 0 3.3 1.9 3.2 3-.3 3.5 0 7-.1 10.5 0 .6.2 1.2.1 1.8-.2 1.1-.9 1.9-1.9 2.4-.6.3-1.3.4-2 .4h-5.5c-.5 0-.6-.2-.6-.7V27zM67.2 24.5v-2.9c0-.7-.4-1.1-1.2-1.1-.8 0-1.3.4-1.3 1.2v9.6c0 1.2.9 1.8 1.8 1.4.6-.2.7-.7.7-1.3v-2.1c0-.6.1-.8.8-.6.6.2 1.3.3 2 .5.5.1.9.4.9 1.1v1.6c0 1.8-1.1 3.6-2.9 4.1-1.5.4-3.1.6-4.6-.2-1.3-.7-2-1.8-2.2-3.3-.5-3.3-.2-6.7-.3-10 0-.8.2-1.7.5-2.5.6-1.8 2.1-2.4 3.7-2.7 1.8-.3 3.5.2 4.9 1.5 1.2 1.1.9 2.5.8 3.8 0 .1-.2.3-.4.4-1.1.4-2.1.9-3.2 1.5zM51 26.4v4.8c0 1.1.8 1.7 1.9 1.2.7-.3.6-.9.6-1.4.1-.7 0-1.4 0-2.1 0-.4.1-.5.5-.5.9.2 1.8.5 2.7.7.3.1.3.3.3.5v3.2c0 .8-.7 1.4-1.2 1.9-.7.9-1.7 1.3-2.8 1.3-1-.1-2 .2-3-.3-1.3-.6-2.2-1.5-2.4-2.9-.7-3.8-.3-7.6-.3-11.5 0-2.4 2.1-4.3 4.7-4.2 1.7 0 3.1.4 4.3 1.5.5.5.9 1.1.8 1.9v.3c.4 1.5-.6 2.2-1.8 2.7-.2.1-.3.1-.5.2-1.2.6-1.2.6-1.2-.8 0-.5.1-1-.1-1.5-.3-.7-.8-1.1-1.4-1-.8.1-1 .6-1 1.4 0 1.5-.1 3-.1 4.6zM35.7 26.7v-8.6c0-.5.1-.6.6-.6h6.9c.5 0 .7.1.6.6-.1.8 0 1.5 0 2.3 0 .5-.1.6-.6.6h-3c-.4 0-.6.1-.5.5v2.6c0 .4.1.5.5.5h3.2c.4 0 .5.1.5.5v2.8c0 .4 0 .6-.6.5-1-.1-2.1 0-3.2 0-.4 0-.5.2-.5.6v2.9c0 .5.2.6.7.6h3.2c.4 0 .6.1.5.5v2.5c0 .3-.1.5-.4.5h-7.5c-.5 0-.4-.3-.4-.6v-8.7zM31.6 42.3v-2.2c0-.4.1-.5.5-.5h2c.6 0 .8.3.9.8 0 .6.1 1.1-.1 1.7-.1.2-.2.4.1.8.4.4.2 1 .3 1.6 0 .3 0 .5-.4.5-.3 0-.8.2-.8-.4v-1c0-.4-.1-.6-.6-.6-.6 0-.4.3-.4.6.1.4-.1.7 0 1.1.1.5-.4.5-.7.5-.4 0-.6 0-.6-.5-.2-.9-.2-1.6-.2-2.4zM67 41.8v-2c0-.4 0-.6.5-.6 2.8 0 2.7-.1 2.6 2.5v1.7c0 .7-.5 1.2-1.2 1.1-.4 0-.8 0-1.2.1-.5.1-.8-.1-.7-.7v-2.1zM59.7 42.1v-2.3c0-.3 0-.5.5-.4.4.1.9-.1 1.4-.1.9-.1 1.5.5 1.2 1.5-.2 1.2.1 2.2.1 3.2 0 .4 0 .7-.6.7s-.5-.3-.5-.7v-.8c.1-.5-.1-.6-.6-.6s-.6.2-.5.6v1c0 .4-.1.6-.6.6s-.4-.3-.4-.6v-2.1zM55.5 42v1.8c0 .6-.3.9-.8.9-1.6 0-2.2.4-2.2-2v-2.2c0-.7.3-1 1-1h.7c.9-.1 1.3.2 1.3 1.2V42zM45.2 42v-1.1c0-1.2.5-1.6 1.8-1.3.5.1 1.1-.2 1.3.6.1.4 0 .5-.2.7-.2.1-.5.4-.7-.1-.1-.3-.5-.2-.8-.2-.3.1-.3.3-.3.6v2.1c0 .4.2.5.5.6.3.1.5 0 .7-.3.1-.2.1-.6.5-.6.3 0 .4.3.5.6 0 .4 0 .8-.4 1-.7.3-1.4.3-2.1.1-.6-.2-.6-.8-.7-1.3-.2-.4-.1-.9-.1-1.4zM75.3 39h.4c.3 0 .8-.2.8.3.1.6-.5.4-.8.6-.2.1-.5 0-.7 0-.3 0-.6.2-.6.6 0 .3.2.6.6.5h.4c1.1.1 1.2.2 1.2 1.2v.1c.1 1.9-.2 1.8-1.9 1.7h-.6c-.2 0-.4 0-.5-.3-.1-.3.1-.4.3-.5.4-.1.8-.1 1.2-.1.5 0 .7-.3.6-.6 0-.3-.1-.8-.6-.7h-.2c-1.2-.1-1.3-.1-1.3-1.3v-.1c.1-1.4.1-1.4 1.7-1.4zM38.7 42.1c0-.5.1-1.1 0-1.6-.1-.8.3-1 1-.9h1.4c.2 0 .5-.1.5.3 0 .3-.1.5-.4.5h-.7c-.8 0-1 .3-.8 1 .1.2.2.2.3.2h.8c.3 0 .5.2.5.5 0 .4-.3.4-.6.3-.9-.1-1 0-1 .9 0 .6.2.8.7.7h.9c.3 0 .3.2.3.4s0 .4-.3.4h-2.1c-.4 0-.5-.4-.5-.7v-2z"/><path fill="#231F20" d="M81.9 24.3v2.2c0 .4 0 .6-.5.6H79c-.5 0-.7-.1-.7-.6 0-1.5-.1-3 0-4.5.1-1.4.7-2.1 1.7-2.1s1.8.9 1.9 2.1v2.3zM28.1 31.8c0 .5-.1.9-.8.9-1.8 0-1.9 0-1.9-1.9 0-1.2 0-2.5.1-3.7 0-.7 0-1.5-.1-2.2 0-1.1.3-2.1 0-3.2 0-.1.1-.3.2-.2.6 0 1.2-.1 1.8.1.7.2.6.9.6 1.4"/><path fill="#231F20" d="M33.8 41.2c.2.7-.4.7-.7.8-.3.1-.5-.2-.4-.5.1-.4-.2-1 .6-.9.5 0 .7.1.5.6zM68.1 41.7v-1.1c0-.2-.1-.5.3-.5s.7.1.7.5V43c0 .4-.4.5-.7.5-.5 0-.3-.3-.3-.5v-1.3zM61.8 41c.1.6-.3.6-.7.6-.6.1-.4-.4-.4-.6 0-.3-.1-.8.5-.8.4.1.6.4.6.8zM53.6 42v-1.1c0-.2-.1-.4.2-.5.3 0 .6 0 .6.4.1.9.1 1.8 0 2.7 0 .2-.2.3-.5.3s-.4-.1-.4-.4c.1-.5.1-1 .1-1.4z"/></svg>