<svg xmlns="http://www.w3.org/2000/svg" viewBox="0 362.9 595.3 117" enable-background="new 0 362.9 595.3 117"><g fill="#231F20"><path d="M51.7 459.6h2.6V473H4.1v-13.4h3.2c6.1 0 7.3-1.3 7.3-7.3v-31c0-5.7-1.3-7.3-7.3-7.3H4.1v-13.4h40.5v51.7c.1 6 1.4 7.3 7.1 7.3zm-24.3-92.3c7.7 0 13.7 6.4 13.7 14 0 7.7-6.1 13.7-13.7 13.7s-13.7-6.1-13.7-13.7 6.1-14 13.7-14zM163.1 459.6h3.2V473h-48.5v-13.4h1.6c5.4 0 6.4-1.6 6.4-7.3v-26.2c0-8.3-3.2-12.4-9.9-12.4-7 0-11.5 5.4-11.5 14.7V452c0 5.7 1.3 7.3 6.7 7.3h1.6v13.4H63.5v-13.4h3.8c6.1 0 7.3-1.3 7.3-7.3v-31c0-5.7-1.3-7.3-7.3-7.3h-3.8v-13.4h40.2v11.2c6.7-8.6 15.6-13.1 26.8-13.1 19.2 0 25.5 8 25.5 26.8V452c.1 6.3 1.4 7.6 7.1 7.6zM211.6 475.8c-24.9 0-40.5-15.3-40.5-38.9 0-23.9 15.6-38.9 41.5-38.9 20.4 0 32.6 10.5 32.6 24.6 0 9.9-6.1 15.3-16.3 15.3-8.6 0-13.7-4.5-13.7-11.8 0-6.4 3.8-10.2 9.6-10.5-1.6-2.6-3.8-3.8-7.7-3.8-10.5 0-13.4 8-13.4 24.9 0 16.6 2.9 24.6 11.8 24.6 6.4 0 10.5-4.8 10.9-13.7h18.5c-.7 18.4-12.5 28.2-33.3 28.2zM254.1 383.6h-3.5v-13.4h40.9v82c0 5.7 1 7.3 7 7.3h2.6V473h-50.4v-13.4h3.5c6.1 0 7.3-1.3 7.3-7.3V391c-.1-5.8-1.4-7.4-7.4-7.4zM339.9 475.8c-19.2 0-25.2-8-25.2-26.8v-27.4c0-5.7-1.3-7.3-7.3-7.3h-2.6v-13.4h39.9v46.6c0 8.3 3.2 12.4 9.9 12.4 7 0 11.5-5.4 11.5-14.7v-23.6c0-5.7-1-7.3-7-7.3h-3.2v-13.4h40.2v51.7c0 5.7 1.3 7.3 7.3 7.3h3.2v13.4h-39.9v-10.5c-6.3 8.6-15.6 13-26.8 13zM456.4 383.6h-3.8v-13.4h42.5v82c0 5.7 1 7.3 6.7 7.3h3.8V473H467v-9.9c-7.3 8.6-14.4 12.4-23.6 12.4-20.1 0-30.6-13.1-30.6-38.3 0-24.6 12.1-39.3 29.7-39.3 8.9 0 16.3 3.2 23 10.9v-17.9c-.8-5.7-2.4-7.3-9.1-7.3zm-1.9 30.6c-7 0-9.9 7.7-9.9 23s3.2 23 9.9 23 10.2-7.7 10.2-23-2.8-23-10.2-23zM552.5 475.8c-25.5 0-41.2-15-41.2-38.9 0-23.6 16-38.9 40.9-38.9 24.6 0 38.3 14.4 38.3 40.5v2.6h-48.2v1.6c0 12.1 5.4 18.8 14.7 18.8 7.7 0 13.1-4.8 15-13.7h18.8c-3.5 19.1-15.9 28-38.3 28zm12.1-48.2v-1c0-9.9-4.1-15-11.2-15-6.7 0-11.2 5.4-11.2 16h22.4z"/></g></svg>