<svg xmlns="http://www.w3.org/2000/svg" viewBox="0 0 209.2 42.1" enable-background="new 0 0 209.2 42.1"><g fill="#221F1F"><path d="M80.2 19.4h-.3v-1c.2 0 .4 0 .6.2.2.2.1.7-.3.8m.8-1.1c-.6-.3-1.4-.2-2.1-.2v.2h.2v1.1h-.2v.2c.7 0 1.3.2 1.9 0 .3-.2.4-.4.4-.8.1-.2.1-.4-.2-.5zM82.2 9.9l.2.1s-.1.2 0 .2c.1.1.2.2.3.1.1-.1.2-.3.2-.4h.1v.1c0 .2-.1.4-.4.4-.4.1-.5-.2-.4-.5m.6.9l.3.1.1.1.1-1.4-.1-.1s-.2.3-.6.3c-.2 0-.5 0-.7-.1.1.2 0 .5.1.8.2.3.5.3.8.3zM84.5 9.9h.1c-.1.1 0 .3.2.4.1.1.2-.1.3-.2v-.2l.2-.1c0 .3-.1.6-.4.6-.3 0-.4-.2-.4-.4v-.1m.5.7c.5-.1.5-.7.5-1.2-.3.1-.4.2-.7.2-.3 0-.5-.3-.5-.3l-.1.1.3 1.5c-.1 0 0-.2.5-.3zM100.4 20.7c0-.3-.1-.5-.4-.7-.2-.1-.4-.1-.5 0-.2.1-.2.4-.2.6.1.1.1.2.3.2.2-.1-.2-.4.2-.5.2 0 .3.2.3.3 0 .3-.1.5-.3.7-.3 0-.5.1-.7-.1-.2-.2-.4-.4-.4-.8s.2-.8.6-1c.9-.4 1.5.4 2.1.9-.5 0-.8.1-1 .4m-3.5-2.2c-.2-.3-.1-.6 0-.9.2-.3.4-.5.8-.6.4-.1.8.1 1.2.4.5.5.8 1.2 1.2 1.7-.5-.2-1.1-.1-1.5.3-.1.2-.3.4-.3.7-.4-.6-.9-1.1-1.4-1.6zm-4.1 1.7c-1.1-.1-2.2.1-3.1.4.1-.6.1-1.3.1-2 .5-.7 1.5-.6 2.3-.7 1.5-.1 2.7.3 4.2.5.3.9 1.3 1.4 1.6 2.3-1.7.2-3.3-.4-5.1-.5zm-.4 1c-.8.1-1.7 0-2.4-.2.6-.4 1.5-.4 2.3-.4h.2c-.2.1-.1.4-.1.6zm-5.7 0L80.3 20c-.9-.2-1.9-.1-2.7 0 .1-.6.2-1.2.1-1.8.1-.3.5-.3.7-.4 1-.3 2.1 0 3.2.1 2.6.5 5.1 1.1 7.8 1.2.1.6-.1 1.2 0 1.8.2.3.5.3.8.4-1.2.1-2.4 0-3.5-.1zm-6.6-.3c-.8 0-1.7-.1-2.5-.3l-.1-.1c.7-.4 1.8-.3 2.6-.1v.5zm-10.7 0c.8-.3 1.6-.5 2.4-.9-.8-.4-1.7-.7-2.4-1.2 2.6.2 5.3.4 8 .2 0 .6-.2 1.2-.2 1.7.3.4.7.3 1.1.4-2.9.2-6 .2-8.9-.2zm5.5-4.3c.9 0 1.6-.3 2.3-.5.7-.1 1.5 0 2.2-.2 0 .4.2.7.1 1.1l-1 .1c-.4.1-.9.3-1.1.7-.1-.1.1-.4-.2-.4-.1 0-.2 0-.2.1s.1.2 0 .2c-.2.1-.3.3-.2.5h-.1c-.2-.1-.1-.4-.3-.5-.1-.1.1-.2 0-.4-.1-.1-.3-.1-.3 0-.2.4-.1.7-.4.7l.1.3c-.2.1-.3-.2-.3-.3 0-.2-.3-.3-.1-.5.1-.1-.1-.2-.1-.2-.1 0-.2.1-.2.1.1.2-.1.3-.3.4v.4c-.2 0-.2-.2-.3-.3 0-.2-.2-.1-.2-.3 0-.3.1-.9.6-1zm3.7-4.5c.2-1.3 1.5-1.9 2.2-2.8 0 .5-.4.9-.8 1.3l-1.4 1.5zm1.6-3.5c0 .7-.8 1.1-1.3 1.5.2-.6.7-1.2 1.3-1.5zm.4-.7c.6-.1 1.1.1 1.5.5 0-.1.1-.1.2-.2v-.1c.4-.1.7-.2 1.1-.2.5 0 1 0 1.4.1 0 .1.1.2.2.2.2-.1.4-.4.6-.5.2-.1.5-.1.7-.1-.1.3-.1.7-.4.9-.1.1-.4.1-.4.2.4.6.4 1.5.2 2.2-.1.2-.2.3-.4.4H85v.1l.4.2v.2l-.4-.2.1.4.4.2v.2l-.5-.1v.2l.4.2-.1.3-1.1-.4v-.5c.2-.1.4-.3.4-.5 0-.1.1-.3-.1-.4-.2.2-.4.2-.7.2-.4 0-.6-.1-.7-.2-.1.2-.1.4.1.5.1.1.4.2.4.2v.5l-1.1.5-.1-.3.3-.2-.1-.3-.4.2-.1-.2.4-.2v.1l-.4.2v-.1l.4-.3v-.1c-.3 0-.7-.1-.8-.5-.2-.6-.2-1.3-.2-1.9 0-.1.2-.1.1-.2-.6-.1-.8-.7-1-1.2zm.8-1.4c-.2-.1-.2-.2-.2-.2.2-.2.6-.4.9-.5v.4c0 .1-.1 0-.2.2-.1.1 0 .4.2.4h.2c0 .1-.1.2-.3.3-.2.1-.4-.2-.4-.2l.2-.1-.2-.5s-.1.2-.2.2zm3.8.8c0 .1-.1.1-.1.1-1-.2-2.2-.1-3.2.2-.1 0-.1-.1-.1-.1.9-.4 2.3-.4 3.4-.2zm-.7-1.7s-.2.3-.2.4c-.1 0-.3 0-.3.1-.1.3.1.5.3.4 0 .1-.1.3-.2.3-.2.1-.4 0-.4-.2v-.1h.2v-.6h-.2v-.2s-.2-.1-.3 0h-.2V6H83v.6h.2s0 .3-.2.3c-.3.1-.4 0-.4-.2v-.1s.3 0 .3-.2c0-.1 0-.3-.2-.3h-.2l-.1-.4c.6-.2 1.4-.4 2.1-.1zm.2.9c.2.1.4 0 .4-.2s-.2-.3-.3-.3v-.4l.8.4-.1.2-.2-.1-.1.4.2.1s-.1.3-.5.2c-.2 0-.2-.2-.2-.3zm4.1 4.7c-.8-.8-2.2-1.1-2.3-2.3.7.9 2.1 1.1 2.3 2.3zm-.3-1.6C88 9.2 87 9 86.9 8.1c.8.2 1.2.9 1.6 1.5zm-1.1 5.9c-.5-.1-1.1-.1-1.4-.7-.2-.4-.4-1-.1-1.4-.1.9.9 1.5 1.5 2.1zm.7 0c-.7-1-2.2-1.7-2-3.1.3 1.2 2.2 1.6 2 3.1zm-1.5-5.4c.7.9 2.2 1.4 2.1 2.7-.6-.9-2.1-1.4-2.1-2.7zm1.8 4.1c-.7-1-2.3-1.5-2-2.9.5 1 2.1 1.6 2 2.9zm-5.2.4h.2c-.2.2-.3.5-.4.8h-.5c.2-.3.3-.7.7-.8zm1.2.6l-.8.1c0-.3.1-.6.3-.8.4.1.5.5.5.7zm1.1 0l-.5-.1c-.1-.2-.2-.4-.4-.6.5-.1.7.4.9.7zm-.7-1.2l-1.7.1c-.1 0-.2-.2-.1-.3.3-.2.6-.5.9-.5.4.1.7.2 1 .4.1.1 0 .2-.1.3zM81 16.6v.6h-.3c0-.2.1-.4.3-.6zm-.3-.4c.2-.8 1.5-1.4 1.4-2.5.2.3.3.8.1 1.1-.2.7-1 1-1.5 1.4zm-.5.9h-.4c0-.1.1-.1.2-.2.2 0 .2.1.2.2zm-.2-1.2c-.3-1 .8-1.7 1.2-2.5.2-.3.3-.6.4-.9.5 1.5-1 2.3-1.6 3.4zm-1-2.3c-.2-1.4 1.3-2.1 1.9-3.1-.1 1.3-1.4 2-1.9 3.1zm2.1-2c.4 1.4-1.4 2.2-1.7 3.4-.2-1.4 1.2-2.2 1.7-3.4zm8.5 2.8c.1-.2 0-.5 0-.7l-.3-.9c1.9.4 3.6 1.4 5.5 1.7.1.3.4.5.7.6l.7.1c0 .6.3 1.1.6 1.6-.3.3-.5.7-.6 1-1.6-.2-3.3-.6-5-.4.3-.4.1-1 0-1.5-.3-.2-.4-.7-.8-.7-.3.3.3.6.3.9.1.5.1 1-.2 1.4-.4.2-1.1.4-1.1 1.1-.9 0-1.7-.2-2.6-.3-.4-.3-.7-.9-1.2-.8-.1-.1-.2-.1-.4 0 .1.3-.5.2-.3.6-.3.1-.2-.4-.4-.5 0-.2.2-.4 0-.5-.1 0-.2.1-.2.2.2.4-.5.3-.2.7-.1.1-.3-.1-.3-.2 0-.2-.3-.3-.1-.5.1 0 .1-.2 0-.2-.1-.1-.2 0-.3 0-.1.2.1.6-.3.5v.2c-.4.1-.2-.4-.5-.5 0-.2.3-.4 0-.5-.1 0-.2.1-.3.2 0 .2-.1.4-.3.4v.3c-.4.1-.2-.4-.4-.5 0-.4.2-.8.6-.9 1.5.1 3.1-.7 4.5.2.6-.3 1.6.4 1.9-.5l.1-.6c.2.1.4.4.6.5.2-.1 0-.3 0-.5-.2-.4-.3-.9-.4-1.4.3-.1.4.2.7.4zm5.8-1c.3-.3.6-.5 1-.5s.7.1.9.4c.5.8-.3 2.1.8 3.1-.3-.1-.5.1-.7.1-.7-.6-.6-1.6-.5-2.4-.1-.2-.1-.4-.3-.5-.2-.1-.5 0-.6.2 0 .1 0 .4.2.4.1 0 .1-.1.2-.1 0-.1-.1-.1-.1-.2.1-.1.2-.1.3 0 .1.1.1.3 0 .5-.2.2-.4.3-.7.2-.2-.1-.4-.2-.4-.4-.2-.3-.2-.6-.1-.8zm.1-2.3c-1.5.2-3.5 1.6-4.6-.1-.3-.6-.2-1.4.2-1.8 1.3-1.4 3.1.1 4.6-.3.2-.2.5-.4.4-.7v-.4c.2.3.2.7.1 1-.2.2-.4.4-.7.5-1.3.2-2.5-.8-3.8-.2-.4.3-.5.6-.5 1 0 .3.1.6.3.8 1.1.9 2.4-.1 3.5-.2.6-.1 1.3.1 1.6.6-.1.1-.2.2-.2.3-.3-.3-.6-.5-.9-.5zm-1.1-.5c-.7.1-1.4.5-2.2.3-.2-.1-.2-.4-.1-.5.2-.3.6-.1.9-.1l1.4.3zm1.7-.8c-.3.3-.8.3-1.2.2-1.1 0-2.2-.9-3.2-.1l-.1.1c-.1-.2 0-.5.3-.6 1.5-.7 4.1 1.6 4.5-1 .2.5.1 1.1-.3 1.4zm1.7 1c.2-.1.5-.1.7-.1.3.1.5.4.5.7 0 1.1-.5 2-.4 3.3 0 .8.1 1.4.4 2-1.1-.8-1.1-1.6-1.1-3 0-.4-.4-.8-.7-1-.3-.2-.6-.1-.9-.1.5-.5 1.1-1.1 1.5-1.8zm1.5-2.2c.1.5.7.8 1.2.9-.4.4-.6 1.1-1.2 1.2-.4 0-.8-.3-.9-.7-.2-.7.6-.8.9-1.4zm-.2 5.9c0-1.3.3-2.5.9-3.6.3-.5.6-.8.6-.8v-.9c-.4 0-.7-.2-1-.4-.2-.3-.3-.5-.3-.9s.3-.9.8-1c.4-.1.9 0 1.2.3.2.3.3.5.3.8 0 .4-.3.7-.6.7-.2 0-.4 0-.5-.3-.1-.2-.1-.5.1-.5.3 0 0 .2.2.3.1 0 .2 0 .3-.1.1-.1 0-.2-.1-.3-.1-.1-.3-.2-.5-.1-.3.1-.4.4-.3.7.1.4.3.5.7.6h1.1l.6-.4.8-.4s-.1-.4-.2-.5l-1 .5c0-.5-.3-1.1-.7-1.5-.4-.3-1.1-.5-1.8-.2s-1.1 1.1-1 1.8c-.5.6-1.5 1.2-1.1 2.1-.4 0-.7.5-1 .8l-.6-.5.5-.3c.6-.7.8-1.4.5-2.1-.2-.7-.8-1.4-1.5-1.5-.3-.1-.6 0-.9.2-.2.2-.2.4-.2.6.1.2.3.4.5.4.3-.1-.1-.2 0-.4 0-.1.2-.2.4-.1s.4.3.3.6c-.1.2-.3.3-.5.4-1.3-.1-2.7-1-4-.1-.7.3-1 1-1.1 1.7 0 .7.2 1.4.8 1.8 1.3 1.1 3.1.2 4.4-.1.2-.1.6-.1.7.2-.6.5-1.2 1.1-1.2 1.9-1.9-.4-3.5-1.3-5.4-1.7-.2 0-.3-.3-.3-.4l.7.2v-.1c-.3-.6-.5-1.2-.8-1.7.2 0 .4.2.7.2v-.1c-.9-.9-1.2-2.5-2.6-2.8 0-.3.1-.5.1-.8h-.2l-1.4.4-.1-.1c.1-.4.4-.7.6-1-.1-.2.2-.3.1-.5s-.4-.2-.5-.2c0-.6-.6.1-.7-.5-.1-.1-.3 0-.4.1l-.2-.2c-.2 0-.3 0-.4.1-.1-.3-.5-.5-.3-.9h.4v-.6h-.5v-.4c-.2 0-.4.1-.6 0 0 .2.1.4.1.6h-.5c0 .2 0 .4.1.6.2 0 .3-.1.5 0 .1.4-.2.6-.2.9v-.1c-.1 0-.3-.1-.4.1 0 .5-.4-.1-.6.2 0 .5-.4-.1-.6.3.1.4-.4.1-.5.4-.2.2.1.4.1.6.3.2.6.6.7 1-.5-.1-1.1-.1-1.6-.2 0 .3.2.5.2.8-.9.2-1.4 1.1-1.6 1.9-.1.4-.5.8-.5 1.3.2 0 .3-.2.5-.2-.1.7-.6 1.2-.6 1.9.2.1.4-.3.7-.3-.1.7 0 1.4-.2 2.1.2.3.4-.3.6-.2 0 .2.1.5 0 .8-1.6.1-3 .6-4.5.8-.6.2-.6.9-.8 1.4-.3.4.3.4.2.8-2.5 0-4.8-.3-7.2-.6 1.1.8 2.2 1.5 3.3 2.1v.1c-1.2.6-2.6.9-3.9 1.2 3.3.5 6.7.8 10.2.7 1.3-.1 2.6-.1 3.8-.4.3-.2.1-.6.2-.8 3.9.5 7.8 1.9 11.9 1 .6 0 .2-.7.4-.9 1.9 0 3.6.8 5.6.5.3.4.8.7 1.3.6.9-.1 1.4-1.5 2.4-1 .8.5 2.3 1.2 3.6 1.2l-.5-.6c-3.9-.7-6-3.9-6-7zM87.7 19.6v-.2l-1-.2v.2h.1v.9c-.1.1-.3.1-.4.1-.4 0-.2-1.4-.2-1.4h-1v.2s.1 0 .2.1c0 .5-.1 1 .3 1.3.3.2.8.3 1.1.1l.1.1.7.1v-.2h-.1v-1.1h.2M84.5 20.1H84v-.5s.2 0 .2.1c.1.1.1.2.3.2v-.5c-.1 0-.2 0-.2.1-.1.1-.3 0-.3 0V19s.5 0 .7.2c.1.1.1.3.1.3h.3l-.1-.6-2-.3v.2l.2.1V20H83v.2l1.8.3.2-.6-.2-.1-.3.3M93.7 18.3v.6h.1s.1-.2.2-.2h.3v1.1h-.2v.2l1.1.2v-.1l-.2-.2v-1.1s.2 0 .3.1c.1.1.2.4.2.4h.2v-.6l-2-.4M93 19.5c-.3.2-.6 0-.6 0v-.4s.3-.1.3.1h.2v-.5h-.2s-.1.2-.4.2v-.4c.2-.1.3-.1.5 0l.3.3h.2l-.1-.6h-1.8v.2h.2v1l-.2.1v.2h1.8l.1-.5h-.2c0 .2-.1.3-.1.3M81.6 18.5l.2.1v1.1h-.2v.2l1.1.2v-.2l-.2-.1v-1.1h.2v-.2l-1.1-.2v.2M96.2 16.4l-.2-.3-2.8-.5.1.2c1 .2 1.9.5 2.9.6M96.2 17l.2-.2c-1.3-.2-2.5-.4-3.8-.7l.1.1c1.2.3 2.3.6 3.5.8M96 15.8c0-.1 0-.2-.1-.3l-2.1-.3.1.1c.7.2 1.4.4 2.1.5"/><path d="M108.4 8.2c-1.3.4-3 .4-4.4 0v-.4c1.2-.5 3.1-.5 4.4-.1v.5m-4.8-.8h-.1c.3.3 0 .8.4 1 1.4.4 3.1.4 4.5 0 .5-.2 0-.8.4-1.1-1.7-.5-3.6-.5-5.2.1zM104.4 4.7c-.2.1-.2.2-.2.3 0 .1.2.3.2.3s-.3-.1-.3 0c-.2.2-.1.3-.1.5 0 .1.1.2.2.2.1-.1.2-.1.4-.1.1.2 0 .5-.3.6-.3.1-.5-.1-.6-.3.1-.1.1-.1.3-.1l-.3-.7-.4.3-.1-.2v-.2c.2-.1.8-.5 1.2-.6m3.5 0c-.4 0-.5.3-.4.6-.1-.1-.3-.2-.4-.1-.2.2-.2.5-.1.7.1-.1.3-.1.4-.1 0 .2-.1.5-.5.5-.5 0-.5-.4-.4-.5.1 0 .2 0 .3.1-.1-.2-.1-.6 0-.8h-.3l.1-.4h-.9l.1.4h-.3c.1.3.2.6.1.8h.3c0 .1 0 .5-.4.5-.3 0-.5-.2-.5-.5.1-.1.2-.1.3 0 0 0 .1-.1.1-.2 0-.2 0-.4-.2-.4-.1-.1-.3.1-.3.1V5c0-.1-.2-.2-.3-.2.8-.4 2.2-.5 3.3-.1zm1.2.6l-.1.4c-.1-.1-.2-.2-.3-.2l-.3.6c.1 0 .3 0 .3.1-.1.3-.4.4-.6.3-.3-.1-.3-.4-.2-.6.2 0 .3 0 .3.1.1-.1.3-.3.2-.5 0-.1-.3-.2-.4-.1.1-.2.2-.5-.1-.7.4.1.9.4 1.2.6zm-6.7.2c.4.5.7 1.1.9 1.6 1.7-.6 3.9-.7 5.6 0 .1-.3.2-.7.5-1 .1-.2.5-.6.5-.6l-.1-.1.2-.2c0-.2.1-.4-.1-.6-.2-.1-.4-.1-.6 0 0-.1 0-.3-.1-.4-.2-.2-.5 0-.7 0 0-.2-.1-.3-.2-.4-.2-.1-.4 0-.6.1-.1-.1-.1-.3-.2-.4-.2-.1-.5 0-.6.1l-.1-.4-.2-.5-.1-.5.7.2v-.8l-.7.2.1-.9h-1l.1.9-.7-.2v.9l.7-.2-.1.5-.2.5-.1.4c-.1-.1-.3-.2-.4-.1-.2 0-.3.2-.4.4-.1-.1-.3-.2-.5-.1s-.3.3-.4.5l-.1-.1c-.2 0-.5 0-.6.2-.1.1.1.4-.2.3-.2-.1-.5 0-.6.2 0 .1.1.4.3.5zM104.6 8.2l.6.1.1-.1c.6-.1 1.2-.1 1.8 0l.1.1.6-.1c-1-.3-2.3-.3-3.2 0M87.5 17.7c.7.1 1.4-.1 2-.1.5-.2.5-.9.4-1.4-.1 0-.1 0-.1.1-.1.4.1.9-.3 1.1l-1.9.2-.1.1M96 17.5c.1-.1.1-.2.1-.3-1.2-.2-2.3-.4-3.5-.7 0 .1 0 .1.1.1 1 .5 2.2.7 3.3.9M120.7 19.7h.6v-.2h-.1v-.7l.9 1h.3v-1.4h.1v-.2h-.5v.2h.1v.4l-.7-.6h-.9v.2h.3v1.1h-.1v.2"/><path d="M119.5 19.6c-.2 0-.3-.2-.4-.5 0-.4-.2-.8.2-.8.3 0 .3.3.3.6.1.4.2.7-.1.7m0-1.4c-.3 0-.6.1-.8.3-.2.2-.3.5-.2.7.1.2.2.4.4.5.3.1.8.1 1.1-.1.4-.2.5-.7.4-1.1-.2-.2-.6-.4-.9-.3zM124 17.3c-.1 0-.2 0-.2.1.1.3-.1.8.2 1 .8.1 1.5.3 2.2.7.1 0 .2.1.2-.1-.6-.5-1.3-.7-2.1-.9-.3-.1 0-.6-.3-.8"/><path d="M137.7 20.7c.3-.1.7-.1 1-.5 0-.6-.2-1.1-.2-1.7 1.6 0 3.1-.2 4.7-.3-.8.6-1.7.9-2.5 1.3.7.4 1.6.7 2.4 1-1.8.2-3.6.3-5.4.2m-1.8-.1c0-.2-.2-.5 0-.7.8-.1 1.7-.1 2.4.2-.1.2-.4.2-.5.3-.7.1-1.3.1-1.9.2zm-5.6.2c0-.6.9-.3 1-.9.1-.3 0-.7-.1-.9-.6-.6-1.4-.1-2-.1l-.3-.2c2.9-.3 5.4-1.6 8.5-1.3.3.1.6.1.8.4.1.6 0 1.3.2 1.9-2.9-.5-5.5.5-8.1 1.1zm-.3-1.7c.2-.1.4 0 .5.1.3.2.4.9 0 1l-.5-1.1zm-1-1.1h.1-.1zm.5 3.1c-.5.3-1 0-1.5 0-.7-.1-1.4-.2-2 .1-.5-.2-.9-.4-1.4-.8.2-.4.8-.4 1.2-.5.7.2 1.2.7 2 .5.2 0 .4 0 .4-.2-.2-.4-.7-.3-1-.4-1.3-.3-2.3-1.1-3.7-1.1-.4-.5-.1-1.2-.2-1.8.1-.1.4-.3.2-.5-.1-.1-.2-.1-.3 0l-.6.4c0 .2.1.4 0 .6-.4-.1-.9-.2-1.4-.2-.1-.4.4-.1.4-.4l.1-1.4c0-.3-.5-.2-.2-.5.1 0 .3.1.4 0l.8-1.3c0-.1-.1-.3-.2-.3l.2-.2c.2.4.6 0 .9 0 .3-.2 1 0 .9-.6v-.1l.3-.1c0 .3 0 .6-.2.8-.5.2-1.2 0-1.7.3l-.4.7c1-.3 2.2-.2 3.2-.6 1 .4 2.1.7 3.1 1.3-.4.5-.2 1.1-.1 1.7 0 .7-.4 1.2-.9 1.7-.4-.4.3-.7.3-1.1.1-.2.2-.7-.1-.9-.4 0-.1.5-.3.7-.1.3-.4.6-.4.9-.2-.1-.4-.3-.6-.5-.1-.2.3-.5 0-.7-.4.3-.7.7-1.1.8-.1.1-.1.1-.1.2.3.3.6-.1.8.2 1 .7 1.9 1.6 3 2.1.7.4.4.9.2 1.2zm-6.1-1.6c0-.2.2-.2.3-.3.6-.1 1 .2 1.5.4-.4.1-.7.2-1 .5-.3 0-.6-.2-.8-.6zm-.5 1.7c.1-.1.4-.2.4-.4v-.4c.2.2.4.3.7.3 0 .2.2.4.4.4l-1.5.1zm-2.2-.2l-.1-.6c.8-.1 1.6 0 2.3.4v.1c-.7.2-1.5.2-2.2.1zm-5.9-.5c.2-.5.7-.9 1-1.4l.2.2v.7h-.1v.2h.6V20h-.1v-.4l.6.6.5-.8.1.5h-.2v.2l1-.2v-.3h-.2l-.1-1h.2v-.3l-.7.1-.4.8-.7-.7h-.2l.1-.3c2-.2 4.2-.9 6.3-.3.2.1.3.2.3.3.2.5-.1 1.2.1 1.7 0 .1.1.2 0 .3-2.9-.9-5.5.8-8.3.3zm-.4-.5c-.1-.3-.4-.8-.8-1-.4-.2-.8-.1-1.2 0 .6-.9 1.1-2.5 2.5-2.1.3.1.6.5.7.8.2 1.1-1 1.5-1.2 2.3zm-.6.9c-.2.2-.5.3-.8.3-.2-.1-.4-.3-.5-.5 0-.2 0-.4.2-.4.1 0 .2 0 .3.1 0 .1-.2.3 0 .4.1 0 .2-.1.3-.2 0-.2-.1-.5-.3-.6-.2-.1-.4 0-.6.1-.2.1-.2.4-.2.5-.3-.2-.6-.4-.9-.4.6-.5 1.2-1.2 2.1-1 .3.1.6.4.6.8s0 .7-.2.9zm-.5-9.2c0-.3.1-.6.3-.8.2-.2.5-.3.8-.2l1.8 1.9c-.5-.1-1.1 0-1.4.5-.7.8.1 2.1-.6 3l-.7.6c.6-1.7.5-3.6-.2-5zm-.2-1.1c-.5-.2-.7-.6-1.1-1.1.4-.1.9-.4 1-.8 0-.1.1-.1.1-.2.5.5 1.5 1.1.8 1.9-.2.1-.5.3-.8.2zm7.7.1c.4-.3.6-.7.5-1.1 0-.4-.4-.6-.6-.8-1.3-.5-2.5.5-3.9.2-.3-.1-.5-.4-.5-.7v-.1c.2.3.4.5.8.5 1.4-.1 3.5-1.3 4.6.3.2.4.2.9.1 1.3s-.4.7-.8.9c-1.7.9-3.4-1.2-5.1.1l-.2-.2c1.5-1.5 3.4.5 5.1-.4zm-.2-.4c0 .2-.2.3-.3.4-.8.1-1.6-.1-2.3-.3.8-.2 1.6-.5 2.4-.3.1-.1.2.1.2.2zm-5.1-1c1.5 1.1 3.2-.2 4.8-.1.4.1.7.5.6.9-.1-.2-.3-.4-.5-.5-1.7-.2-3.7 1.5-4.9-.3zm1.2 3.7c.2.1.4.4.4.6 0 .3-.1.5-.3.7-.1.2-.4.2-.7.1-.1 0-.3-.2-.3-.4 0-.1.1-.3.2-.3.4-.1.1.6.4.3.1-.1 0-.3-.1-.5-.1-.1-.4-.2-.6-.1-.6.4-.1 1.1-.2 1.7 0 .4-.2.8-.6 1.1-.2-.1-.5-.1-.7 0 .6-.7.6-1.7.5-2.6 0-.3.2-.6.5-.8.6 0 1.1 0 1.5.2zm4.3 2.5h.4l-.1.9h-.4l.1-.9zm.5-1.5c.2-.2.3-.5.4-.7l.3.2c-.1.3-.3.6-.5.8 0-.1-.3-.1-.2-.3zm2.6-2c.1 0 .1.2.1.3-.3.1-.6.2-.9.2-.1-.1-.1-.3-.1-.4l.9-.1zm2.8.6c.1.1.3 0 .4-.1-.1-.6.4-1 .5-1.5.4 0 .8-.3 1-.6.1-.2.1-.6 0-.8-.1-.1-.2-.1-.2 0-.1.3-.2.7-.6.8-.6.2-1.2 0-1.8-.1-.5.1-1.1.1-1.5.6-.1.1-.4.1-.6 0-.1-.1-.2-.2-.1-.3.2-.1.5 0 .7-.2 0-.2-.1-.4-.3-.4-.4-.2-.9.6-.9-.1l.1-.5c.2.1.4.2.6.1.1 0 .2-.2.2-.3-.2-.3-.4 0-.6 0 0-.2.4-.3.5-.4.7-.1 1.4-.4 1.9-.9.5-.1 1 .2 1.5-.1.2-.4.5-.8.9-1 .1.5.3 1.1-.1 1.4.1.1.2.1.3.1.2-.3.2-.5.2-.6 1.3.8 1.8 2.2 1.5 3.7-.2.7-.4 1.4-.7 2 0 0-.1-.2-.3-.2.1-.1.1-.4-.1-.5-.3 0-.4.4-.7.3-.1.1-.1.2-.1.3.1.1.1 0 .2.1 0 .2-.1.3-.3.3-.2 0-.4-.1-.5-.3 0-.1-.1-.3 0-.3s.4.3.4 0c0-.2.4-.4.1-.5l-.2-.1c0-.1.2-.2.2-.3-.2-.1-.4-.2-.6-.2-.1.1-.1.2-.1.3-.1.1-.2-.1-.3-.1-.1.2-.2.4-.2.6l.3.1c-.1.2-.4.3-.6.3-.1-.1-.3-.1-.3-.3 0-.2.1-.3.2-.3zm.9-6.8c.3-.4.7-.6 1.1-.8 0 .7-.6 1.2-1.1 1.5-.3-.2-.1-.5 0-.7zm2.6-.4c0 .7-.8 1.1-1 1.7-.1 0-.2-.2-.2-.3-.1-.8.7-1.1 1.2-1.4zm1.3.9c-.1.8-1.1.9-1.5 1.5-.2 0-.1-.2-.2-.3.1-.8 1.1-1 1.7-1.2zm1.2 1.4c-.6.5-1.5.6-2.2.8-.1-.1-.1-.2 0-.3.5-.6 1.4-.5 2.2-.5zm.4 1.4c-.6.4-1.5.3-2.2.2-.1-.1-.1-.2 0-.3.7-.4 1.5 0 2.2.1zm.1 1.4c-.7.2-1.7.3-2.2-.3 0-.1.1-.2.2-.2.8 0 1.4.2 2 .5zm-.3 1.2c-.7.2-1.5 0-2-.6 0-.1.1-.2.2-.2.7.1 1.2.6 1.8.8zm-2.1.6v-.2c.1-.1.3-.1.4 0l1.2.9c-.7 0-1.2-.2-1.6-.7zm-.3 1c0-.1-.1-.3 0-.4h.2l.9 1.2c-.4-.1-.9-.4-1.1-.8zm-.5.9c-.1-.1 0-.3.1-.3.4.1.6.7.9.9-.4.1-.9-.2-1-.6zm-.8-.1c-.1 0-.2 0-.2-.1s0-.2.1-.3c.1 0 .2 0 .2.1.1.1 0 .2-.1.3zm2.5 2.9c.3 0 .6 0 .8.2-1.1.3-2.3.6-3.5.8.9-.2 1.8-.7 2.7-1zm10.3 2.5c1.2-.6 2.3-1.3 3.3-2.2-2.3.3-4.6.6-7 .6-.2-.1 0-.4-.1-.5-.6-.9-2.1-.7-3.2-.6-.7-.1-1.6.8-2.2-.1-.3-.3-.8-.2-1.3-.3-.8.2-1.5.7-2.3.8.2-.5 0-1.2 0-1.7 0-.1 0-.3.2-.3.3.5.9.8 1.4.8 0-.2-.3-.4-.3-.6.5.2 1.2 0 1.7.3 0-.4-.6-.8-.8-1 .4 0 .8 0 1.2.1-.1-.5-.5-.9-.8-1.2H133.7c-.2-.4-.6-.8-1-1l.8-.1c.2-.1.6 0 .8-.1-.4-.5-.9-.8-1.4-1l1.2-.3h.5c-.4-.5-.9-.7-1.4-.9.3-.1.5-.3.7-.4.2-.1.4-.1.5-.3-.4-.4-1.1-.5-1.6-.6v-.5c.4-.2.7-.6 1-.8v-.1c-.6-.4-1.4-.4-2.1-.4.2-.2.3-.5.4-.7.1-.2.3-.4.4-.6-.6-.1-1.2.1-1.8.3l.3-1.3h-.1c-.6 0-1.2.3-1.7.7 0-.4.1-.8.2-1.1-.5 0-.9.2-1.4.4-.6.3-1.2.8-1.1 1.5 0 0-.1 0-.1.1.2.1.3.4.3.6-.2-.1-.3-.3-.3-.5-.1-.2-.4-.4-.7-.3.1.1.3.4.3.6-.3-.2-.3-.5-.6-.8-.1-.1-.3-.1-.5 0l.2.4v.1c-.4-.2-.3-.6-.6-.7-.1-.1-.4-.1-.5 0 .1.2.3.3.3.5-.4-.2-.6-1.1-1.2-.8.1.1.3.3.3.4-.4-.1-.4-.5-.7-.7-.1-.1-.3-.1-.4 0 .1.1.2.2.2.4-.3 0-.2-.3-.4-.4-.1-.2-.3-.3-.6-.2.1.1.2.2.2.4-.2-.1-.2-.5-.5-.5-.1 0-.2.1-.2.3l.3.3c.6-.1.8.5 1.4.4.2.3.5.4.9.4.2.2.5.4.9.3.3.4.9 0 1.1.5.2.2.7 0 .7.3h-.1c-.7-.4-1.2.2-1.7.5-.6.3-1.5.2-1.9.8-.1.6-.4 1.3 0 1.8.1.1.2.1.2.2l.6.7c.2.2.5.1.8.1.7-.5 1.6-.7 2.4-.3-.1.3-.1.6-.4.7-.1.1-.1.3-.3.2-.2 0-.3.2-.3.4l.2.1c.1.1.1.2 0 .3-.1.1-.3.1-.4.1-.2-.1-.3-.3-.2-.5.1 0 .1.1.2.1 0-.2.1-.4.1-.6h-.3c0-.1.2-.2.1-.4-.2-.1-.4-.1-.7 0l-.1.4-.5.1c-.1-.1-.1-.2-.2-.3l-1.2.3c-.2 0-.5.2-.4.5-.2.2-.5.9-.9.5-.3.4-.5.8-.8 1.2-.1.2-.1.4.1.5 0 .2-.1.4-.2.6-.1 0-.3 0-.4.1l-.1 1.5c.1.2.2.1.4.2v.2c-1.6 0-3 .5-4.6.5-.1-.4-.3-.7-.6-1 .4-.4.6-1 .7-1.6.5 0 .9-.1 1.3-.6 1.1 0 2.2.1 3.3-.1l-.1-.1c-.2-.2 0-.3.1-.5-1 .1-2.1.1-3.1 0 .1-1-.8-1.5-1.4-2.1.1-.1.2-.2.4-.3 1.3-.1 2.4.7 3.8.5.8-.1 1.7-.7 1.9-1.5.2-.7.1-1.5-.3-2.1-.9-1-2.4-.9-3.6-.6-.6.1-1.4.5-1.8-.1-.2-.3-.1-.7 0-.9-.3 0-.4.2-.6.3-.4.5-.3 1.3-.1 1.9-.4-.1-.6-.6-.8-.9-.2.4-.1 1 .1 1.4.2.5.7.8 1.1.9-.3.1-.6.3-.9.5-.1-.1-.2-.3-.4-.5-.1-.2-.6-.1-.5-.4.3-.9-.5-1.4-1.1-1.9-.1-.7-.5-1.7-1.4-1.9-.7-.2-1.3-.1-1.8.5-.3.3-.3.6-.3 1.1-.4-.1-.7-.4-1.1-.4-.1.1-.1.3 0 .5.6.2 1.1.5 1.5.8h1c.2 0 .4-.1.5-.3.2-.2.2-.4.1-.7-.1-.2-.2-.4-.5-.4s-.3.2-.3.4.1.2.2.2 0-.2.1-.2c0-.1.1-.1.1-.1.1.1.2.1.2.3.1.2-.1.4-.3.5-.2.1-.5 0-.7-.2-.3-.2-.2-.5-.1-.9.1-.3.3-.5.6-.6.4-.2.8-.1 1.1.2.5.4.7 1 .4 1.5-.2.4-.6.7-1.1.6v.9c1.3 1.6 1.7 3.1 1.7 4.5 0 3.2-2.1 6.5-6.1 7.1l-.5.6c1.4-.1 2.7-.6 3.9-1.3 1.2-.5 1.7 1.3 2.9 1 .4-.1.7-.4.9-.7.7.1 1.4.2 2.2.1 1.3-.1 2.5-.5 3.7-.5 0 .3 0 .6.1.8 1.5.4 3.3.4 4.9.2.4.1.9.2 1.2 0 .9-.1 1.6.1 2.5.2.4.1.7-.1.9-.4 1.8-.4 3.5-.9 5.3-1.2.2 0 .1.4.2.6.2.3.6.3 1 .4 3.3.3 6.6 0 9.8-.5-1.4-.5-2.8-.9-4.1-1.4zM116.3 16.3l2.3-.5c.2-.1.6 0 .7-.3-.9.2-1.8.4-2.8.5-.2 0-.2.2-.2.3M116.3 16.9c1.1-.2 2.1-.4 3.2-.7.1-.1.3-.1.3-.3-1.2.4-2.5.4-3.7.7l.2.3M119.7 16.7l.1-.1c-1.1.2-2.3.4-3.4.6l.1.2c1.1-.2 2.2-.3 3.2-.7M116.5 15.5v.2c.7-.1 1.4-.2 2-.4l.1-.1-2.1.3M136.7 17.8h.2V19h-.2v.2l1 .1v-.2l-.2-.1v-1.1s.1 0 .2.1.1.2.1.2l.2.1v-.4c-.4-.2-.9-.2-1.4-.2v.5h.1v-.4M136.5 19l-.2-.1-.1-1h.2v-.3l-1.1.2.1.1h.1l.2 1.1-.2.1v.2l1-.2V19"/><path d="M132.3 19.1l-.1-.5s.3-.2.4.1c.1.3-.2.4-.3.4m.8-.5c-.1-.3-.5-.3-.9-.2l-.8.2v.2h.1l.3 1.1-.1.1.1.1.8-.2-.1-.2h-.1l-.1-.4h.3c.1.1.3.5.3.5l.6-.2-.5-.5s.2 0 .1-.5zM134.5 19.3c-.2.1-.3-.1-.4-.5-.1-.3-.2-.7 0-.8.3-.1.4.3.5.6.1.4.2.6-.1.7m.3-1.4c-.3-.1-.7-.1-1 .1-.3.2-.4.5-.3.9 0 .2.2.4.4.5.3.1.7.1 1-.1.3-.1.4-.4.4-.7-.1-.2-.2-.5-.5-.7zM109.7 18.8h-.1c.1-.1.3-.1.2-.3-.4-.3-.8-.2-1.2-.2l-.1-.1c.2-.2.5-.1.8-.1.1 0 .2-.1.2-.2-.3.1-.7 0-1.1.2-.1.1 0 .2 0 .2.4.1.9-.1 1.2.2h-.1c-.5-.2-1 .1-1.5-.1l.1-.1c-.2-.1-.5-.2-.7-.2-.1.1.1.3 0 .4-.2 0-.1-.2-.2-.3h-.3c-.1.1 0 .2-.1.3.2.1.3.4.5.5-.1.1-.2.3-.3.1-.1 0-.3.1-.3.2.2.4.6 0 .9 0h.1c.2-.2.5-.2.7-.3.1.2-.2.2-.2.3-.1.1-.2-.1-.3.1 0 .1-.1.1 0 .2.3.1.5-.2.8-.2.2 0 0-.2.2-.3.1-.1.3-.2.4 0l-.1.1c-.1 0-.1-.2-.2-.1-.1 0-.1.1-.1.1 0 .2.2.2.3.2.1-.1.4-.3.5-.6"/><path d="M106.9 10.2h3.3v3.7h-3.3v-3.7zm-.3 4h4V9.9h-4v4.3zM107.4 17.9c.2 0 .3-.2.4-.1.1 0 .1-.1.1-.1.4-.1.7-.3 1.1-.2 0 0 0 .1-.1.1-.2.2-.6 0-.6.3.1 0 .1.1.2.1.1-.2.4-.1.6-.1.4.1.1-.3.4-.4.2 0 .5-.1.7.1 0 .1 0 .1-.1.1-.1.1-.1 0-.2 0-.1-.1-.2 0-.2.1 0 .2.2.2.4.3.2-.1.3-.4.4-.6-.1 0-.3 0-.4-.1.1 0 .3-.1.2-.2-.4-.4-1.1-.1-1.6-.2l-.1-.1c.2-.2.8 0 .9-.3 0-.1-.1-.1-.1-.1-.3.2-.8 0-.9.4.4.4 1 0 1.5.1.1 0 .2.1.1.1-.6-.1-1.4.1-2-.1 0-.1.1-.1.1-.2-.2-.2-.6-.1-.8-.2 0 .2.1.3 0 .4-.1.1-.1 0-.2-.1s0-.1 0-.2c0-.2-.2 0-.3-.1-.1 0-.1.2-.1.3.3.1.3.5.5.6l-.2.2c-.1 0-.1-.1-.1-.1-.1.1-.3.1-.3.2.1.4.4 0 .7.1M106.8 16.5c.1.1.2 0 .3 0 .3 0 .5-.3.7-.2.4-.2.8-.4 1.3-.3l-.1.2c-.2.1-.6 0-.6.2s.2.1.3.2c.2-.2.6 0 .8-.2-.2-.2.1-.2.2-.3.2.1.6-.2.7.2-.1.2-.2-.1-.4 0 0 .2.2.2.3.3.2-.1.4-.4.4-.7-.1 0-.3 0-.4-.1.1-.1.3-.1.3-.2-.5-.5-1.2 0-1.8-.2v-.1c.3-.2.8.2.9-.2 0-.1-.1 0-.2 0-.2.2-.8-.1-.9.4 0 .1.2.1.3.1.5 0 1.1-.2 1.5.1-.7.1-1.6.1-2.3 0v-.1c-.2-.2-.5-.2-.7-.2 0 .1.1.2 0 .3 0 .1 0 .2-.1.2-.2-.1-.1-.2-.1-.3 0-.1-.2 0-.3-.1-.2 0-.1.2-.2.3.2.1.3.4.5.6-.2.3-.4-.1-.6.2 0-.2.2-.2.2-.1"/><path d="M106.4 21.3v-6.5h4.6c.1 2.1 0 4-1.9 4.8-.9.5-2 .9-2.7 1.7m0-11.7h4.5v4.9h-4.5V9.6zm-.4 4.9h-4.5V9.6h4.5v4.9zm0 6.8c-1-1.1-2.3-1.2-3.6-2.2-1.1-.9-.9-2.8-.9-4.2h4.5v6.4zm-5.1-3.8c-1-1.6-1-4.2 0-5.8v5.8zm10.7-5.9c.5.9.8 1.9.8 2.9s-.3 2.1-.8 2.9v-5.8zm-1.7 8.3c.8-.5 1.9-1.6 2.4-3 .6-1.6.5-2.8.1-4.4-.3-.9-.9-1.7-.9-1.7V9h-2.1l-.7-.4-.4.1.5.3h-5.1l.5-.2-.5-.1s-.5.3-.8.3h-2.1v2c-1 1.5-1.4 3.7-.8 5.5.7 1.8 1.3 2.4 2.6 3.4 1.3.6 2.7 1.2 3.6 2.5.7-1.3 2.1-1.8 3.7-2.5zM101.9 11.4c.3-.1.6-.1.8-.3.1.2.1 0 .2 0 .4-.1.7-.4 1.1-.2-.1.3-.4.2-.7.2-.1.2.1.3.3.3.2-.2.7 0 .9-.2-.2-.1.1-.1.2-.3.2.1.6-.2.7.2h-.1c-.1 0-.2 0-.2-.1l-.1.1c-.1.2.2.2.3.3.3-.1.3-.4.4-.7-.1-.1-.3 0-.4-.1.1 0 .3-.1.2-.3-.3-.4-1-.2-1.4-.2-.1 0-.2 0-.2-.1.1-.1.2 0 .4-.1.2 0 .4 0 .4-.2h-.1c-.2.2-.6.1-.8.2 0 .1 0 .2.1.3.5.1 1.1-.2 1.6.1v.1c-.7-.1-1.5.1-2.2-.1l.1-.1c-.2-.1-.5-.3-.8-.2 0 .1.1.4-.1.4-.3-.1 0-.3-.1-.4h-.3c-.2.4.3.5.5.8l-.1.1c-.1.1-.2.1-.2 0-.1-.1-.2.1-.3.1-.3.2-.1.3-.1.4"/><path d="M103.5 17.1l1.5.9-.1.4-1.7-1-.1-.3c.1-.2.3 0 .4 0m.1-.6c.5.3.9.6 1.4.9v.3c-.5-.2-1-.6-1.5-.9l.1-.3zm.4-.5l1.1.6v.3c-.4-.2-.8-.5-1.2-.7l.1-.2zm1.1-.2v.5c-.3-.1-.6-.3-.8-.5h.8zm-.3 3.3c-.5-.3-1.2-.7-1.4-1.3.5.3 1 .6 1.4.9 0 .2.1.3 0 .4zm-.3.4c.4.2.7.6 1.1.7.2-1.5.1-5 .1-5h-2.2c-.5 0-.2.7-.5.9-.1.1-.3.1-.3 0 0-.2.1-.3.2-.4.1-.1.1-.4 0-.5-.2-.1-.4-.1-.6-.1l-.3.3c-.1.2 0 .5.2.6 0 .2-.1.3-.2.4-.1.1 0 .3.1.4.2 1.2 1.2 2.4 2.4 2.7zM110 10.7c0-.1-.2-.2-.3-.2-.4.3-.4.9-.2 1.3 0 .3.7.6.3.7-.2-.2-.5-.3-.7-.6-.1-.3 0-.6.1-.8.1-.2 0-.4.1-.6-.1 0-.2-.1-.3-.2-.2 0-.6 0-.7.2 0 .2.1.1.3.2 0 .1-.3 0-.2.2l.2.1c-.1.1-.3.2-.4.2-.2-.1-.5-.2-.5-.5l.1-.1c0-.2-.2-.1-.4-.2 0 .1-.2.1-.2.3.3.2.5.7.8.9-.1.1-.1.1-.2.1-.1.1-.3.1-.3-.1-.2-.1-.1.2-.3.2.1.1 0 .2 0 .4h.2c.3-.3.6-.2.9-.4l.2.4-.3.1c-.2.2.2.3 0 .5-.1.1-.3 0-.3-.1-.2-.1-.1.2-.3.2-.1.2.1.1.1.3.1.1.1.1.2.1.1-.3.4-.2.7-.3.1 0 .3-.2.2-.3.1 0 .2-.1.3 0-.1.4.5.3.4.6-.1 0-.1-.1-.2-.1-.1.2-.2.3 0 .5.2-.1.5-.3.5-.5s-.2-.3-.3-.4c0-.1 0-.2.1-.3.1.1.2.2.4.2s.2-.2.2-.4c-.4-.4-.6-.9-.4-1.4 0-.1.1-.3.2-.2.2.2-.1.4-.1.6 0 .1.1.2.2.3.1 0 .2.1.2-.1-.4-.2-.4-.5-.3-.8M105.1 12.4c-.1 0-.1.1-.1.1 0 .2.2.2.3.2.3-.1.3-.4.4-.7-.1-.1-.3 0-.4-.1.1 0 .2-.1.2-.2-.4-.5-1.1-.1-1.7-.3.1-.3.6 0 .8-.2.1-.1 0-.1-.1-.2-.3.1-.6.1-.9.2-.1.1-.1.3.1.3.5.1 1.1-.2 1.5.1l-.1.1c-.7-.2-1.4.1-2.1-.1-.2 0 0-.1 0-.2h-.1c-.2-.2-.5-.1-.7-.2-.1.1.1.2 0 .4 0 .1-.1.1-.2.1-.1-.1 0-.2 0-.3-.1-.1-.2 0-.3-.1-.1 0-.1.1-.1.2s.1.1.2.2c.1.2.3.3.3.5-.1 0-.2.2-.2 0-.1-.1-.2.1-.3.2 0 .1.1.2.2.3.3-.1.6-.1.9-.3.1.1.1-.1.2-.1.4-.1.7-.3 1.2-.2-.1 0 0 .2-.1.2-.2 0-.3.2-.5.1-.1 0-.2.1-.1.2 0 .2.2.1.3.1.2-.2.6-.1.9-.1-.2.2-.6 0-.8.2 0 .1 0 .2.1.3.5.1 1.1-.1 1.6.1v.1c-.8-.2-1.5.1-2.2-.1 0 0 .1-.1 0-.2h-.1c-.2-.2-.5-.1-.7-.1 0 .2.1.3 0 .4-.2 0-.1-.2-.2-.4-.1 0-.2-.1-.3 0v.3c.2.1.3.4.5.5l-.1.1c-.1.1-.2 0-.3-.1-.1.1-.3.1-.3.3.1.2.3.1.4.1.3 0 .4-.2.7-.2.4-.2.8-.3 1.2-.4.2 0 0 .1 0 .2-.2 0-.4.1-.6.1 0 .1-.1.2 0 .2.3.1.6-.1.9 0 .4 0 0-.3.4-.4.2.1.5-.1.6.1 0 .3-.2 0-.3.1-.1 0 0 .1 0 .1 0 .2.2.1.3.2.2-.1.3-.4.4-.7-.1 0-.3 0-.4-.1.1 0 .3-.1.2-.3-.4-.4-1.1-.1-1.6-.2v.2l.1-.1c.2-.1.6.1.7-.2 0-.1-.1-.1-.2-.1v-.2c.1-.4.6-.1.8-.1 0 .1.1.1 0 .2s-.1-.1-.3-.1M129.6 12.3c0 .1.1.1.1.1.4-.6.5-1.3.5-2.1-.1-.6-.2-1.2-.6-1.5-.1 0-.1.1-.1.1.7 1 .5 2.4.1 3.4"/><path d="M127 8.2l.3.2c-.1.1-.2.1-.4.1 0-.1.1-.2.1-.3m-.7.2c0-.1.1-.2.2-.3v.3h-.2zm.2-.6c-.3 0-.4.3-.6.5.1.2.3.3.6.3.4.1.9 0 1.1-.3-.3-.1-.6-.6-1.1-.5zM12.3 41.7V41c-1.5 0-2.5-.4-2.5-2V28.1c3 0 3.8.5 4 2.9h.7v-4.4H.9V31h.7c.3-2.4 1-2.9 4-2.9V39c0 1.6-1 2-2.5 2v.6h9.2M25.4 34.5V39c0 1.5-.8 1.9-2 2v.6h8V41c-1.5 0-2-.4-2-2v-9.7c0-1.6.6-2 2-2v-.6h-8v.6c1.3 0 2 .5 2 2v4h-5.1v-4c0-1.5.8-1.9 2-2v-.6H15v.6c1 .2 1.4.4 1.4 2V39c0 1.6-.6 2-2 2v.6h8V41c-1.3 0-2-.5-2-2v-4.6h5M44.7 41.7v-4.4h-.5c-.8 3.2-1.9 3.4-3.2 3.4h-1.9c-.9 0-1.1-.3-1.1-1.1v-5.1c2.2 0 3.8-.2 3.9 1.9h.6v-4.8h-.6c-.1 1.9-1.8 1.7-3.9 1.7v-5.5h2.4c2.4 0 3.4.9 3.7 3.2h.5v-4.2H32.1v.6c1.5 0 2 .4 2 2V39c0 1.6-.6 2-2 2v.6h12.6M52.5 41.8h.4c.1-.4.4-.7.8-.7.8 0 1.5 1 4.8 1 2.1 0 4.7-1.6 4.7-5.1 0-5.1-8.2-4.3-8.2-7.7 0-1.3 1.2-1.9 2.5-1.9 2 0 3.3 1.5 4 3.4h.5v-4.1h-.6c-.1.3-.2.5-.5.5-.7 0-1.3-.9-3.5-.9-2.6 0-5.4 1.1-5.4 4.4 0 5.5 8.3 4.7 8.3 8.2 0 1.1-1.3 2.1-2.8 2.1-2.1 0-4.1-1.7-4.5-3.8h-.6l.1 4.6M162.3 41.7v-.6c-1.2 0-1.7-.8-1.7-2.4v-9c0-1.6.3-2.3 1.5-2.3v-.7h-7v.7c1.2 0 1.5.6 1.5 2.3v9c0 1.6-.5 2.4-1.8 2.4v.6h7.5M172.4 41.7l4.6-12v9c0 1.8-.3 2.2-2 2.4v.6h7.9v-.6c-1.9-.2-2-.8-2-2.4v-8.9c0-2 .3-2.1 2-2.4v-.7h-6.1l-3.7 9.8-3.6-9.8h-6.1v.7c1.4 0 2 .8 2 2.4v9.1c0 1.6-.3 1.9-2 2.2v.6h5.4v-.6c-2-.3-2-.6-2-2.2v-8.6l4.6 11.4h1M196.5 41.7v-4.4h-.5c-.8 3.2-1.9 3.4-3.2 3.4h-1.9c-.9 0-1.1-.3-1.1-1.1v-5.1c2.2 0 3.8-.2 3.9 1.9h.6v-4.8h-.6c-.1 1.9-1.8 1.7-3.9 1.7v-5.5h2.4c2.4 0 3.4.9 3.7 3.2h.5v-4.2H184v.6c1.5 0 2 .4 2 2v9.8c0 1.6-.6 2-2 2v.6h12.5M198.4 41.8h.4c.1-.4.4-.7.8-.7s2.4 1 4.8 1c2.1 0 4.7-1.6 4.7-5.1 0-5.1-8.2-4.3-8.2-7.7 0-1.3 1.2-1.9 2.5-1.9 2 0 3.3 1.5 4 3.4h.5v-4.1h-.6c-.1.3-.2.5-.5.5-.7 0-1.3-.9-3.5-.9-2.6 0-5.4 1.1-5.4 4.4 0 5.5 8.3 4.7 8.3 8.2 0 1.1-1.3 2.1-2.8 2.1-2.1 0-4.1-1.7-4.5-3.8h-.6l.1 4.6M152.1 41.7V41c-1.5 0-2.5-.4-2.5-2V28.1c3 0 3.8.5 4 2.9h.7v-4.4h-13.6V31h.7c.3-2.4 1-2.9 4-2.9V39c0 1.6-1 2-2.5 2v.6h9.2M79.3 27.4c.8 0 1.1.2 1.9 1.1V39c0 1.6-.7 2-2.3 2v.7h6V41c-1.7 0-2.4-.4-2.4-2v-8.4l8.5 11h1.8v-12c0-1.6.5-2.2 2-2.3v-.7h-5.2v.7c1.5.3 1.8.7 1.8 2.3V36l-6.9-9.3H73.7v.7c1.3 0 2 .7 2 2v7.3c0 2.8-.9 3.8-3.2 3.8-1.4 0-3.2-.7-3.2-2.9v-8.3c0-1.6.6-2 2-2v-.7h-7.9v.7c1.5 0 2 .4 2 2v8c0 3.6 2.5 4.8 5.9 4.8 3.7 0 5.7-1.3 5.7-4.8v-7.9c.1-1.7.8-2 2.3-2"/><path d="M101.5 27.8c3.9-.5 5.5 2.6 5.5 6 0 4.9-1.3 6.7-4.1 6.7-.9 0-1.4-.3-1.4-1.6V27.8M97.6 39c0 1.6-.6 2-2 2v.7h7.5c4.7 0 7.9-2 7.9-7.5 0-5.6-3.2-7.5-7.9-7.5h-7.5v.7c1.5 0 2 .4 2 2V39zM118.1 35.8h-3.7l1.8-5.4 1.9 5.4m7.5 5.2c-.9 0-1.6-.5-2-1.4l-4.8-13.4-2.7.7-4.3 12.1c-.6 1.6-1.4 1.9-2.7 2v.6h6V41c-1.3 0-2.1-.4-2.1-.9 0-.4.1-.7.3-1.2l.7-1.9h4.5l1 2.2c.1.3.2.7.2 1 0 .5-.4.8-.9.8h-1.2v.6h16.1V41c-1.4 0-2.3-.4-2.3-2v-4.4l3.5-5.6c.9-1.3 1.5-1.5 2.7-1.6v-.7h-5.4v.7c.8 0 1.4.2 1.4.8 0 .5-.2.9-.4 1.3l-2.4 3.6-2.1-3.6c-.3-.5-.6-1.1-.6-1.5s.3-.7 1.2-.7v-.7h-8v.7c.8.1 1.8 0 2.5 1.1l3.8 6.1V39c0 1.7-.9 2-2 2z"/></g></svg>