<svg xmlns="http://www.w3.org/2000/svg" viewBox="0 0 104.6 63.3" enable-background="new 0 0 104.6 63.3"><g fill="#202020"><path d="M46 3.1c-.4.4-.3.7-.6.8-.5.2-1.1 1.8-1.1 1.8s.3.2-.7 1.4c-.8.9-1.1 2.4-1.1 2.4s.6 1 .5 2.2c-.1.9-.1.2.3.9.2.4.5 1.7.6 1.2.3-1-.5-1.9-.4-2.9 0 .1.3-.4.3.1 0 1.2 1.5 3.6 1.5 3.6s-.6.6 0 .6h2.6c-.3-.7-.3-1.8.3-2.9.4-.7 1.4-.9 2.3-.6 1-.8 1.2.1 2.1-.3 1.1-.5.5 1.3 1.6 1.8.5-1.2-1-2.1-.1-2.7.7-.4 1.2-.7 1.5-1.2.4-.8.5-1.4.8-1.5.7-.2.5-.9.5-.9s.7.2 1.3-.3c-.4-.2-1.1-.4-.9-.9.2-.7 1.7.4 2.2-.5-.9-.4-1.8-1.2-2.3-1.4-.4.4-.6.2-1.1-.1-.8-.6-.9 0-1.4-.5-.4.8.2.8.4 1 .5.6-.5-.5-.4.9 0 .4-.5.4-1-.4-.2-.4-1.9-.3-2.2-.7.2-.4 1.7-1.7 4.1-1.8 8.7.9 15.9 6.6 18.6 14.2C71.4 7.5 63.7.5 53.2.5 41.9.5 35.1 7.3 32.3 16.2c2.1-6.1 7.2-11 13.7-13.1zM53.1 43.9c-9.7 0-17.9-5.9-20.9-14 2.9 8.8 10.1 15.6 20.9 15.6 10.1 0 18.1-6.9 21-15.8-2.9 8.3-11.2 14.2-21 14.2zM56.6 14.9c-.8 0-.8-.6-1.3-.5-.5.1-.4-.5-.8-.5-.3 0-.7-.1-.8.1-.2.3.3-.1.8.3.7.6.6.2 1.1.5.3.2 0 .4.2.3.3-.2.8.1.8.1s.7-.3 0-.3zM63.8 34.2c1.4-1.4.9-1.7 1.8-2.2 1-.5 1.1 0 1.4-.4.8-1 .5-.9.8-1.5l.2-.3H57.3c.3.1.7.4.9.9.4 1.1-.2.2-.2 1.9 0 1.5-.4 1.3-.4 1.3s-.1 1.8-1 2.9c-.6.6-.1 1.1-.1 1.1s-.2.1-.5 1.4c-.1.4.4 1.1.9.9.4-.1-.9-.2.5-.8.5-.2.1-.6.1-.6s.8-.1 1.3-1.3c.8.1.5-.4 2.3-.8.5-.1.6-.2.5-.7-.1-.6.5-.1 2.2-1.8zM15.3 18.4h-3.4l.5.6v4.5c0 1-.7 1.4-1.7 1.4S9 24.5 9 23.5V19l.5-.6H6.1l.5.6v4.6c0 2.3 1.3 3.1 4.1 3.1s4.1-.9 4.1-3.1V19l.5-.6zM27.3 18.4h-2.9l.5.6v4.1l-4.2-4.7h-2.6l.5.6v6.9l-.5.7H21l-.5-.7v-4.1l4.4 4.8h1.9V19l.5-.6zM34 26.6l-.5-.7V19l.5-.6h-3.5l.5.6v6.9l-.5.7H34zM45.5 18.4h-3l.5.6-2 4.5-2-4.5.5-.6h-3.4l3.8 8.2h1.7l3.9-8.2zM55.2 26.6v-2.3l-.6.6h-4.2v-1.6h2.7l.6.5v-2.7l-.6.6h-2.7v-1.6h4.2l.6.5v-2.2h-7.7l.5.6v6.9l-.5.7h7.7zM66.9 26.6l-2.2-3.2c1.1-.4 1.9-1.3 1.9-2.5 0-1.4-.8-2.5-3.2-2.5h-5.1l.5.6v7l-.5.6h3.4l-.5-.6v-2.3h1l1.6 2.3-.5.6h3.6zM64.1 21c0 .6-.6 1.1-1.4 1.1h-1.6v-2H63c.6 0 1.1.3 1.1.9zM77.3 24.2c0-1.3-1-2-2.6-2.5-1-.3-2.4-.5-2.4-1.2 0-.3.4-.5 1-.5.9 0 2.3.4 3.5.9v-2.7l-.7.6c-.7-.3-1.9-.6-2.7-.6-2.8 0-3.7 1.2-3.7 2.3 0 1.5 1 2.2 2.6 2.7 1.2.4 2.3.4 2.3 1.1 0 .6-.7.7-1 .7-.9 0-2.4-.3-3.8-1.2v3l.7-.7c.6.2 2.1.7 3.3.7 2.4 0 3.5-1.1 3.5-2.6zM89.6 26.6l-4-8.2h-2.8l.3.6-3.6 7.6h3L82 26l.4-.9h3.9l.4.9-.5.6h3.4zm-4-3h-2.7l1.4-2.9 1.3 2.9zM99.3 26.6v-2.3l-.6.6h-4V19l.5-.6h-3.4l.5.6v6.9l-.5.7h7.5zM97.1 19.5c0 .6.5 1 1 1s1-.5 1-1c0-.6-.5-1-1-1s-1 .4-1 1zm-.1 0c0-.6.5-1.1 1.1-1.1.6 0 1.1.5 1.1 1.1 0 .6-.5 1.1-1.1 1.1-.6.1-1.1-.5-1.1-1.1zM98.5 19.1c-.1-.1-.2-.1-.4-.1-.3 0-.6.3-.6.6s.2.6.6.6c.2 0 .3-.1.4-.2v-.2c-.1.1-.3.2-.4.2-.3 0-.5-.2-.5-.5s.2-.5.5-.5c.2 0 .3.1.4.2v-.1zM6.2 58v2.8c0 1.4-.8 1.9-2.5 1.9s-2.5-.5-2.5-1.9V58l-.3-.4H3l-.3.4v2.8c0 .6.4.9 1 .9s1-.3 1-.9V58l-.3-.4h2.1l-.3.4zM14.3 58v4.6h-1.1l-2.7-2.9v2.6l.3.4H9l.3-.4V58l-.3-.3h1.6l2.5 2.9V58l-.3-.4h1.8l-.3.4zM17.3 62.6l.3-.4V58l-.3-.4h2.1l-.3.4v4.2l.3.4h-2.1zM24.9 62.6h-1l-2.3-5h2.1l-.4.4 1.2 2.7 1.3-2.7-.3-.4h1.8l-2.4 5zM29.2 62.6l.3-.4V58l-.3-.4h4.7V59l-.4-.3H31v1h1.6l.4-.3V61l-.4-.3H31v1h2.5l.4-.3v1.4h-4.7zM39.6 62.6l.3-.4-1-1.4h-.6v1.4l.3.4h-2.1l.3-.4V58l-.3-.4h3.1c1.4 0 1.9.7 1.9 1.5 0 .7-.5 1.2-1.1 1.5l1.4 2h-2.2zm-.1-3.9h-1.1v1.2h.9c.5 0 .8-.3.8-.6 0-.4-.3-.6-.6-.6zM46.8 62.8c-.7 0-1.6-.3-2-.4l-.4.4V61c.8.5 1.8.7 2.3.7.2 0 .6 0 .6-.4s-.7-.4-1.4-.7c-1-.3-1.6-.7-1.6-1.7 0-.7.5-1.4 2.2-1.4.5 0 1.2.2 1.6.4l.4-.4v1.7c-.7-.3-1.6-.6-2.1-.6-.4 0-.6.1-.6.3 0 .4.8.5 1.4.7.9.3 1.6.7 1.6 1.5.1 1-.6 1.7-2 1.7zM55 62.6l.3-.4-.2-.5h-2.4l-.2.5.3.4H51l2.2-4.6-.2-.3h1.7l2.4 5H55zm-1.1-3.5l-.8 1.8h1.7l-.9-1.8zM59.3 62.6l.3-.4V58l-.3-.4h2.1l-.4.4v3.6h2.4l.4-.3v1.4h-4.5zM75 62.6l.3-.4v-2.4L74 62.6h-.7l-1.5-2.8v2.4l.3.4h-1.7l.3-.4V58l-.3-.4h1.8l1.6 3 1.5-3H77l-.3.4v4.2l.3.4h-2zM84.8 58v2.8c0 1.4-.8 1.9-2.5 1.9s-2.5-.5-2.5-1.9V58l-.3-.4h2.1l-.3.4v2.8c0 .6.4.9 1 .9s1-.3 1-.9V58l-.3-.3h2.1l-.3.3zM89.9 62.8c-.7 0-1.6-.3-2-.4l-.4.4V61c.8.5 1.8.7 2.3.7.2 0 .6 0 .6-.4s-.7-.4-1.4-.7c-1-.3-1.6-.7-1.6-1.7 0-.7.5-1.4 2.2-1.4.5 0 1.2.2 1.6.4l.4-.4v1.7c-.7-.3-1.6-.6-2.1-.6-.4 0-.6.1-.6.3 0 .4.8.5 1.4.7.9.3 1.6.7 1.6 1.5.1 1-.5 1.7-2 1.7zM94.7 62.6l.3-.4V58l-.3-.4h2.1l-.3.4v4.2l.3.4h-2.1zM102.2 62.7c-1.5 0-2.9-.7-2.9-2.6 0-1.5 1-2.6 2.9-2.6.6 0 1.2.1 1.5.3l.3-.3v1.7c-.5-.3-1.1-.5-1.8-.5-1.1 0-1.5.7-1.5 1.5 0 .9.6 1.5 1.5 1.5s1.5-.4 1.8-.5v1.2c-.2.1-1.1.3-1.8.3z"/></g></svg>